<mxfile host="app.diagrams.net" modified="2023-05-27T13:34:22.995Z" agent="Mozilla/5.0 (Macintosh; Intel Mac OS X 10_15_7) AppleWebKit/605.1.15 (KHTML, like Gecko) Version/15.6.1 Safari/605.1.15" version="21.3.4" etag="B6pr68brj-iaZF_dA3e8" type="github">
  <diagram name="Pagina-1" id="AGm_SBJOJg9tHQnAD6y1">
    <mxGraphModel>
      <root>
        <mxCell id="0" />
        <mxCell id="1" parent="0" />
      </root>
    </mxGraphModel>
  </diagram>
</mxfile>
